<svg xmlns="http://www.w3.org/2000/svg" height="48" width="48"><path d="M22.55 29.15h2.85l.2-2.15q.6-.1 1.125-.425.525-.325.925-.725l2.05.65 1.35-2.3-1.45-1.15q.25-.7.25-1.45t-.25-1.5l1.45-1.15-1.35-2.3-2.05.65q-.4-.4-.95-.7-.55-.3-1.1-.45L25.45 14h-2.9l-.15 2.2q-.55.1-1.1.4-.55.3-1 .7l-2-.65-1.35 2.3 1.45 1.15q-.25.75-.25 1.5t.25 1.45l-1.45 1.15 1.35 2.3 2-.65q.45.4.975.75.525.35 1.125.45ZM24 25.1q-1.45 0-2.475-1.025Q20.5 23.05 20.5 21.6q0-1.45 1.025-2.475Q22.55 18.1 24 18.1q1.45 0 2.475 1.025Q27.5 20.15 27.5 21.6q0 1.45-1.025 2.475Q25.45 25.1 24 25.1ZM12.05 43.9v-8.5q-2.85-2.6-4.4-6.075Q6.1 25.85 6.1 22q0-7.45 5.225-12.7Q16.55 4.05 24 4.05q6.25 0 11.05 3.675 4.8 3.675 6.25 9.525l2.75 10.9q.2.7-.225 1.225-.425.525-1.175.525h-4.7v7.15q0 1.2-.85 2.025t-2 .825h-5.15v4Z"/></svg>